{
    "asset": {
        "generator": "FBX2glTF v0.13.1",
        "version": "2.0"
    },
    "scene": 0,
    "buffers": [
        {
            "byteLength": 279520,
            "uri": "Sandbox.bin"
        }
    ],
    "bufferViews": [
        {
            "buffer": 0,
            "byteLength": 24000,
            "byteOffset": 0,
            "target": 34963
        },
        {
            "buffer": 0,
            "byteLength": 95820,
            "byteOffset": 24000,
            "target": 34962
        },
        {
            "buffer": 0,
            "byteLength": 95820,
            "byteOffset": 119820,
            "target": 34962
        },
        {
            "buffer": 0,
            "byteLength": 63880,
            "byteOffset": 215640,
            "target": 34962
        }
    ],
    "scenes": [
        {
            "name": "Root Scene",
            "nodes": [
                0
            ]
        }
    ],
    "accessors": [
        {
            "componentType": 5123,
            "type": "SCALAR",
            "count": 12000,
            "bufferView": 0,
            "byteOffset": 0
        },
        {
            "componentType": 5126,
            "type": "VEC3",
            "count": 7985,
            "bufferView": 1,
            "byteOffset": 0,
            "min": [
                -0.100000061094761,
                -0.1000000461936,
                -5.5615053895508e-08
            ],
            "max": [
                0.100000090897083,
                0.100000075995922,
                0.200000032782555
            ]
        },
        {
            "componentType": 5126,
            "type": "VEC3",
            "count": 7985,
            "bufferView": 2,
            "byteOffset": 0
        },
        {
            "componentType": 5126,
            "type": "VEC2",
            "count": 7985,
            "bufferView": 3,
            "byteOffset": 0
        }
    ],
    "images": [
        {
            "name": "Sandbox.png",
            "uri": "Sandbox.png"
        }
    ],
    "samplers": [
        {}
    ],
    "textures": [
        {
            "name": "Sandbox_png",
            "sampler": 0,
            "source": 0
        }
    ],
    "materials": [
        {
            "name": "Material__Sandbox_png",
            "alphaMode": "OPAQUE",
            "doubleSided": false,
            "extras": {
                "fromFBX": {
                    "shadingModel": "Phong",
                    "isTruePBR": false
                }
            },
            "pbrMetallicRoughness": {
                "baseColorTexture": {
                    "index": 0,
                    "texCoord": 0
                },
                "baseColorFactor": [
                    1.0,
                    1.0,
                    1.0,
                    1.0
                ],
                "metallicFactor": 0.400000005960464,
                "roughnessFactor": 0.806901276111603
            }
        }
    ],
    "meshes": [
        {
            "name": "Tile_011",
            "primitives": [
                {
                    "material": 0,
                    "mode": 4,
                    "attributes": {
                        "NORMAL": 2,
                        "POSITION": 1,
                        "TEXCOORD_0": 3
                    },
                    "indices": 0
                }
            ]
        }
    ],
    "nodes": [
        {
            "name": "RootNode",
            "translation": [
                0.0,
                0.0,
                0.0
            ],
            "rotation": [
                0.0,
                0.0,
                0.0,
                1.0
            ],
            "scale": [
                1.0,
                1.0,
                1.0
            ],
            "children": [
                1
            ]
        },
        {
            "name": "Tile_011",
            "translation": [
                2.38418573772492e-09,
                -9.53674295089968e-09,
                0.0
            ],
            "rotation": [
                -0.70710676908493,
                -0.0,
                0.0,
                0.70710676908493
            ],
            "scale": [
                1.0,
                1.0,
                1.0
            ],
            "mesh": 0
        }
    ]
}