{
    "asset": {
        "generator": "FBX2glTF v0.13.1",
        "version": "2.0"
    },
    "scene": 0,
    "buffers": [
        {
            "byteLength": 78772,
            "uri": "Barrel.bin"
        }
    ],
    "bufferViews": [
        {
            "buffer": 0,
            "byteLength": 1164,
            "byteOffset": 0,
            "target": 34963
        },
        {
            "buffer": 0,
            "byteLength": 1956,
            "byteOffset": 1164,
            "target": 34962
        },
        {
            "buffer": 0,
            "byteLength": 1956,
            "byteOffset": 3120,
            "target": 34962
        },
        {
            "buffer": 0,
            "byteLength": 1304,
            "byteOffset": 5076,
            "target": 34962
        },
        {
            "buffer": 0,
            "byteLength": 3168,
            "byteOffset": 6380,
            "target": 34963
        },
        {
            "buffer": 0,
            "byteLength": 5220,
            "byteOffset": 9548,
            "target": 34962
        },
        {
            "buffer": 0,
            "byteLength": 5220,
            "byteOffset": 14768,
            "target": 34962
        },
        {
            "buffer": 0,
            "byteLength": 3480,
            "byteOffset": 19988,
            "target": 34962
        },
        {
            "buffer": 0,
            "byteLength": 12456,
            "byteOffset": 23468,
            "target": 34963
        },
        {
            "buffer": 0,
            "byteLength": 16068,
            "byteOffset": 35924,
            "target": 34962
        },
        {
            "buffer": 0,
            "byteLength": 16068,
            "byteOffset": 51992,
            "target": 34962
        },
        {
            "buffer": 0,
            "byteLength": 10712,
            "byteOffset": 68060,
            "target": 34962
        }
    ],
    "scenes": [
        {
            "name": "Root Scene",
            "nodes": [
                0
            ]
        }
    ],
    "accessors": [
        {
            "componentType": 5123,
            "type": "SCALAR",
            "count": 582,
            "bufferView": 0,
            "byteOffset": 0
        },
        {
            "componentType": 5126,
            "type": "VEC3",
            "count": 163,
            "bufferView": 1,
            "byteOffset": 0,
            "min": [
                -0.00370172993279994,
                -0.00370172993279994,
                -0.00516352988779545
            ],
            "max": [
                0.00370172993279994,
                0.00370172993279994,
                0.00533483969047666
            ]
        },
        {
            "componentType": 5126,
            "type": "VEC3",
            "count": 163,
            "bufferView": 2,
            "byteOffset": 0
        },
        {
            "componentType": 5126,
            "type": "VEC2",
            "count": 163,
            "bufferView": 3,
            "byteOffset": 0
        },
        {
            "componentType": 5123,
            "type": "SCALAR",
            "count": 1584,
            "bufferView": 4,
            "byteOffset": 0
        },
        {
            "componentType": 5126,
            "type": "VEC3",
            "count": 435,
            "bufferView": 5,
            "byteOffset": 0,
            "min": [
                -0.00370172993279994,
                -0.00370172993279994,
                -0.00519877020269632
            ],
            "max": [
                0.00370172993279994,
                0.00370172993279994,
                0.00533483969047666
            ]
        },
        {
            "componentType": 5126,
            "type": "VEC3",
            "count": 435,
            "bufferView": 6,
            "byteOffset": 0
        },
        {
            "componentType": 5126,
            "type": "VEC2",
            "count": 435,
            "bufferView": 7,
            "byteOffset": 0
        },
        {
            "componentType": 5123,
            "type": "SCALAR",
            "count": 6228,
            "bufferView": 8,
            "byteOffset": 0
        },
        {
            "componentType": 5126,
            "type": "VEC3",
            "count": 1339,
            "bufferView": 9,
            "byteOffset": 0,
            "min": [
                -0.00370172993279994,
                -0.00370172993279994,
                -0.00519877020269632
            ],
            "max": [
                0.00370172993279994,
                0.00370172993279994,
                0.00540983956307173
            ]
        },
        {
            "componentType": 5126,
            "type": "VEC3",
            "count": 1339,
            "bufferView": 10,
            "byteOffset": 0
        },
        {
            "componentType": 5126,
            "type": "VEC2",
            "count": 1339,
            "bufferView": 11,
            "byteOffset": 0
        }
    ],
    "images": [
        {
            "name": "diffus.png",
            "uri": "diffus.png"
        }
    ],
    "samplers": [
        {}
    ],
    "textures": [
        {
            "name": "diffus_tga",
            "sampler": 0,
            "source": 0
        }
    ],
    "materials": [
        {
            "name": "Material_001__diffus_tga",
            "alphaMode": "OPAQUE",
            "doubleSided": false,
            "extras": {
                "fromFBX": {
                    "shadingModel": "Lambert",
                    "isTruePBR": false
                }
            },
            "pbrMetallicRoughness": {
                "baseColorTexture": {
                    "index": 0,
                    "texCoord": 0
                },
                "baseColorFactor": [
                    1.0,
                    1.0,
                    1.0,
                    1.0
                ],
                "metallicFactor": 0.200000002980232,
                "roughnessFactor": 0.800000011920929
            }
        },
        {
            "name": "Material__diffus_tga",
            "alphaMode": "OPAQUE",
            "doubleSided": false,
            "extras": {
                "fromFBX": {
                    "shadingModel": "Lambert",
                    "isTruePBR": false
                }
            },
            "pbrMetallicRoughness": {
                "baseColorTexture": {
                    "index": 0,
                    "texCoord": 0
                },
                "baseColorFactor": [
                    1.0,
                    1.0,
                    1.0,
                    1.0
                ],
                "metallicFactor": 0.200000002980232,
                "roughnessFactor": 0.800000011920929
            }
        }
    ],
    "meshes": [
        {
            "name": "Barrel_LOD2",
            "primitives": [
                {
                    "material": 0,
                    "mode": 4,
                    "attributes": {
                        "NORMAL": 2,
                        "POSITION": 1,
                        "TEXCOORD_0": 3
                    },
                    "indices": 0
                }
            ]
        },
        {
            "name": "Barrel_LOD1",
            "primitives": [
                {
                    "material": 1,
                    "mode": 4,
                    "attributes": {
                        "NORMAL": 6,
                        "POSITION": 5,
                        "TEXCOORD_0": 7
                    },
                    "indices": 4
                }
            ]
        },
        {
            "name": "Barrel_LOD0",
            "primitives": [
                {
                    "material": 1,
                    "mode": 4,
                    "attributes": {
                        "NORMAL": 10,
                        "POSITION": 9,
                        "TEXCOORD_0": 11
                    },
                    "indices": 8
                }
            ]
        }
    ],
    "nodes": [
        {
            "name": "RootNode",
            "translation": [
                0.0,
                0.0,
                0.0
            ],
            "rotation": [
                0.0,
                0.0,
                0.0,
                1.0
            ],
            "scale": [
                1.0,
                1.0,
                1.0
            ],
            "children": [
                1,
                2,
                3
            ]
        },
        {
            "name": "Barrel_LOD2",
            "translation": [
                0.0199999995529652,
                -8.94069651646845e-10,
                0.0
            ],
            "rotation": [
                0.0,
                0.0,
                0.0,
                1.0
            ],
            "scale": [
                1.0,
                1.0,
                1.0
            ],
            "mesh": 0
        },
        {
            "name": "Barrel_LOD1",
            "translation": [
                0.00999999977648258,
                -8.94069651646845e-10,
                0.0
            ],
            "rotation": [
                0.0,
                0.0,
                0.0,
                1.0
            ],
            "scale": [
                1.0,
                1.0,
                1.0
            ],
            "mesh": 1
        },
        {
            "name": "Barrel_LOD0",
            "translation": [
                0.0,
                -8.94069651646845e-10,
                0.0
            ],
            "rotation": [
                0.0,
                0.0,
                0.0,
                1.0
            ],
            "scale": [
                1.0,
                1.0,
                1.0
            ],
            "mesh": 2
        }
    ]
}