{
	"asset":{
		"generator":"Khronos glTF Blender I/O v3.6.27",
		"version":"2.0"
	},
	"extensionsUsed":[
		"KHR_materials_specular",
		"KHR_materials_ior"
	],
	"scene":0,
	"scenes":[
		{
			"name":"Scene",
			"nodes":[
				11
			]
		}
	],
	"nodes":[
		{
			"mesh":0,
			"name":"l_back_wheel_geo",
			"translation":[
				134.9058837890625,
				-234.2730255126953,
				58.92647933959961
			]
		},
		{
			"mesh":1,
			"name":"l_front_wheel_geo",
			"translation":[
				-85.21370697021484,
				-1.1323797702789307,
				112.97882080078125
			]
		},
		{
			"children":[
				1
			],
			"mesh":2,
			"name":"l_steer_geo",
			"translation":[
				31.7506103515625,
				251.4849853515625,
				-22.160762786865234
			]
		},
		{
			"children":[
				0,
				2
			],
			"mesh":3,
			"name":"l_engine_geo",
			"translation":[
				139.50050354003906,
				-10.956600189208984,
				-163.81259155273438
			]
		},
		{
			"mesh":4,
			"name":"r_back_wheel_geo",
			"translation":[
				-134.9058837890625,
				-234.2730255126953,
				58.92647933959961
			]
		},
		{
			"mesh":5,
			"name":"r_front_wheel_geo",
			"translation":[
				85.21370697021484,
				-1.1323797702789307,
				112.97882080078125
			]
		},
		{
			"children":[
				5
			],
			"mesh":6,
			"name":"r_steer_geo",
			"translation":[
				-31.7506103515625,
				251.4849853515625,
				-22.160762786865234
			]
		},
		{
			"children":[
				4,
				6
			],
			"mesh":7,
			"name":"r_engine_geo",
			"translation":[
				-139.50050354003906,
				-10.956600189208984,
				-163.81259155273438
			]
		},
		{
			"mesh":8,
			"name":"canon_geo",
			"translation":[
				0,
				102.74390411376953,
				-104.6419906616211
			]
		},
		{
			"mesh":9,
			"name":"hatch_geo",
			"translation":[
				62.984012603759766,
				-43.586097717285156,
				-125.90518951416016
			]
		},
		{
			"children":[
				8,
				9
			],
			"mesh":10,
			"name":"turret_geo",
			"translation":[
				0,
				-35.59499740600586,
				-231.75396728515625
			]
		},
		{
			"children":[
				3,
				7,
				10
			],
			"mesh":11,
			"name":"tank_geo",
			"rotation":[
				0.7071068286895752,
				0,
				0,
				0.7071068286895752
			],
			"scale":[
				0.009999999776482582,
				0.009999999776482582,
				0.009999999776482582
			]
		}
	],
	"materials":[
		{
			"alphaMode":"BLEND",
			"doubleSided":true,
			"extensions":{
				"KHR_materials_specular":{
					"specularColorFactor":[
						2.371357614441398,
						2.371357614441398,
						2.371357614441398
					]
				},
				"KHR_materials_ior":{
					"ior":1.4500000476837158
				}
			},
			"name":"engine_phong",
			"pbrMetallicRoughness":{
				"baseColorTexture":{
					"index":0
				},
				"roughnessFactor":0.5527864098548889
			}
		},
		{
			"alphaMode":"BLEND",
			"doubleSided":true,
			"extensions":{
				"KHR_materials_specular":{
					"specularColorFactor":[
						2.371357614441398,
						2.371357614441398,
						2.371357614441398
					]
				},
				"KHR_materials_ior":{
					"ior":1.4500000476837158
				}
			},
			"name":"turret_phong",
			"pbrMetallicRoughness":{
				"baseColorTexture":{
					"index":1
				},
				"roughnessFactor":0.5527864098548889
			}
		}
	],
	"meshes":[
		{
			"name":"Mesh.006",
			"primitives":[
				{
					"attributes":{
						"POSITION":0,
						"NORMAL":1,
						"TEXCOORD_0":2
					},
					"indices":3,
					"material":0
				}
			]
		},
		{
			"name":"Mesh.008",
			"primitives":[
				{
					"attributes":{
						"POSITION":4,
						"NORMAL":5,
						"TEXCOORD_0":6
					},
					"indices":7,
					"material":0
				}
			]
		},
		{
			"name":"Mesh.007",
			"primitives":[
				{
					"attributes":{
						"POSITION":8,
						"NORMAL":9,
						"TEXCOORD_0":10
					},
					"indices":11,
					"material":0
				}
			]
		},
		{
			"name":"Mesh.005",
			"primitives":[
				{
					"attributes":{
						"POSITION":12,
						"NORMAL":13,
						"TEXCOORD_0":14
					},
					"indices":15,
					"material":0
				}
			]
		},
		{
			"name":"Mesh.002",
			"primitives":[
				{
					"attributes":{
						"POSITION":16,
						"NORMAL":17,
						"TEXCOORD_0":18
					},
					"indices":19,
					"material":0
				}
			]
		},
		{
			"name":"Mesh.004",
			"primitives":[
				{
					"attributes":{
						"POSITION":20,
						"NORMAL":21,
						"TEXCOORD_0":22
					},
					"indices":23,
					"material":0
				}
			]
		},
		{
			"name":"Mesh.003",
			"primitives":[
				{
					"attributes":{
						"POSITION":24,
						"NORMAL":25,
						"TEXCOORD_0":26
					},
					"indices":27,
					"material":0
				}
			]
		},
		{
			"name":"Mesh.001",
			"primitives":[
				{
					"attributes":{
						"POSITION":28,
						"NORMAL":29,
						"TEXCOORD_0":30
					},
					"indices":31,
					"material":0
				}
			]
		},
		{
			"name":"Mesh.010",
			"primitives":[
				{
					"attributes":{
						"POSITION":32,
						"NORMAL":33,
						"TEXCOORD_0":34
					},
					"indices":35,
					"material":1
				}
			]
		},
		{
			"name":"Mesh.011",
			"primitives":[
				{
					"attributes":{
						"POSITION":36,
						"NORMAL":37,
						"TEXCOORD_0":38
					},
					"indices":39,
					"material":1
				}
			]
		},
		{
			"name":"Mesh.009",
			"primitives":[
				{
					"attributes":{
						"POSITION":40,
						"NORMAL":41,
						"TEXCOORD_0":42
					},
					"indices":43,
					"material":1
				}
			]
		},
		{
			"name":"Mesh",
			"primitives":[
				{
					"attributes":{
						"POSITION":44,
						"NORMAL":45,
						"TEXCOORD_0":46
					},
					"indices":47,
					"material":1
				}
			]
		}
	],
	"textures":[
		{
			"sampler":0,
			"source":0
		},
		{
			"sampler":0,
			"source":1
		}
	],
	"images":[
		{
			"mimeType":"image/png",
			"name":"steamroller_tank61_file3-steamroller_tank61_file3",
			"uri":"steamroller_tank61_file3-steamroller_tank61_file3.png"
		},
		{
			"mimeType":"image/png",
			"name":"file1-file1",
			"uri":"file1-file1.png"
		}
	],
	"accessors":[
		{
			"bufferView":0,
			"componentType":5126,
			"count":1991,
			"max":[
				28.817474365234375,
				122.76327514648438,
				121.89097595214844
			],
			"min":[
				-182.81320190429688,
				-122.76315307617188,
				-122.948974609375
			],
			"type":"VEC3"
		},
		{
			"bufferView":1,
			"componentType":5126,
			"count":1991,
			"type":"VEC3"
		},
		{
			"bufferView":2,
			"componentType":5126,
			"count":1991,
			"type":"VEC2"
		},
		{
			"bufferView":3,
			"componentType":5123,
			"count":5556,
			"type":"SCALAR"
		},
		{
			"bufferView":4,
			"componentType":5126,
			"count":1660,
			"max":[
				169.5087890625,
				85.65234375,
				85.0199966430664
			],
			"min":[
				0,
				-83.91224670410156,
				-85.8055648803711
			],
			"type":"VEC3"
		},
		{
			"bufferView":5,
			"componentType":5126,
			"count":1660,
			"type":"VEC3"
		},
		{
			"bufferView":6,
			"componentType":5126,
			"count":1660,
			"type":"VEC2"
		},
		{
			"bufferView":7,
			"componentType":5123,
			"count":5184,
			"type":"SCALAR"
		},
		{
			"bufferView":8,
			"componentType":5126,
			"count":952,
			"max":[
				117.09819030761719,
				89.80780029296875,
				124.73204803466797
			],
			"min":[
				-116.52101135253906,
				-92.6051025390625,
				0
			],
			"type":"VEC3"
		},
		{
			"bufferView":9,
			"componentType":5126,
			"count":952,
			"type":"VEC3"
		},
		{
			"bufferView":10,
			"componentType":5126,
			"count":952,
			"type":"VEC2"
		},
		{
			"bufferView":11,
			"componentType":5123,
			"count":2436,
			"type":"SCALAR"
		},
		{
			"bufferView":12,
			"componentType":5126,
			"count":4233,
			"max":[
				127.25199890136719,
				291.04400634765625,
				106.53608703613281
			],
			"min":[
				-72.67940521240234,
				-328.7303161621094,
				-165.54641723632812
			],
			"type":"VEC3"
		},
		{
			"bufferView":13,
			"componentType":5126,
			"count":4233,
			"type":"VEC3"
		},
		{
			"bufferView":14,
			"componentType":5126,
			"count":4233,
			"type":"VEC2"
		},
		{
			"bufferView":15,
			"componentType":5123,
			"count":12714,
			"type":"SCALAR"
		},
		{
			"bufferView":16,
			"componentType":5126,
			"count":1991,
			"max":[
				182.81320190429688,
				122.76327514648438,
				121.89097595214844
			],
			"min":[
				-28.817474365234375,
				-122.76315307617188,
				-122.948974609375
			],
			"type":"VEC3"
		},
		{
			"bufferView":17,
			"componentType":5126,
			"count":1991,
			"type":"VEC3"
		},
		{
			"bufferView":18,
			"componentType":5126,
			"count":1991,
			"type":"VEC2"
		},
		{
			"bufferView":19,
			"componentType":5123,
			"count":5556,
			"type":"SCALAR"
		},
		{
			"bufferView":20,
			"componentType":5126,
			"count":1660,
			"max":[
				0,
				85.65234375,
				85.0199966430664
			],
			"min":[
				-169.5087890625,
				-83.91224670410156,
				-85.8055648803711
			],
			"type":"VEC3"
		},
		{
			"bufferView":21,
			"componentType":5126,
			"count":1660,
			"type":"VEC3"
		},
		{
			"bufferView":22,
			"componentType":5126,
			"count":1660,
			"type":"VEC2"
		},
		{
			"bufferView":23,
			"componentType":5123,
			"count":5184,
			"type":"SCALAR"
		},
		{
			"bufferView":24,
			"componentType":5126,
			"count":952,
			"max":[
				116.52101135253906,
				89.80780029296875,
				124.73204803466797
			],
			"min":[
				-117.09819030761719,
				-92.6051025390625,
				0
			],
			"type":"VEC3"
		},
		{
			"bufferView":25,
			"componentType":5126,
			"count":952,
			"type":"VEC3"
		},
		{
			"bufferView":26,
			"componentType":5126,
			"count":952,
			"type":"VEC2"
		},
		{
			"bufferView":27,
			"componentType":5123,
			"count":2436,
			"type":"SCALAR"
		},
		{
			"bufferView":28,
			"componentType":5126,
			"count":4235,
			"max":[
				72.67940521240234,
				291.04400634765625,
				106.53608703613281
			],
			"min":[
				-127.25199890136719,
				-328.7303161621094,
				-165.54641723632812
			],
			"type":"VEC3"
		},
		{
			"bufferView":29,
			"componentType":5126,
			"count":4235,
			"type":"VEC3"
		},
		{
			"bufferView":30,
			"componentType":5126,
			"count":4235,
			"type":"VEC2"
		},
		{
			"bufferView":31,
			"componentType":5123,
			"count":12714,
			"type":"SCALAR"
		},
		{
			"bufferView":32,
			"componentType":5126,
			"count":794,
			"max":[
				30.385902404785156,
				183.60301208496094,
				29.869232177734375
			],
			"min":[
				-28.683597564697266,
				-26.58038330078125,
				-30.292816162109375
			],
			"type":"VEC3"
		},
		{
			"bufferView":33,
			"componentType":5126,
			"count":794,
			"type":"VEC3"
		},
		{
			"bufferView":34,
			"componentType":5126,
			"count":794,
			"type":"VEC2"
		},
		{
			"bufferView":35,
			"componentType":5123,
			"count":2508,
			"type":"SCALAR"
		},
		{
			"bufferView":36,
			"componentType":5126,
			"count":569,
			"max":[
				43.462799072265625,
				43.462799072265625,
				2.37506103515625
			],
			"min":[
				-43.462799072265625,
				-43.462799072265625,
				-10.419281005859375
			],
			"type":"VEC3"
		},
		{
			"bufferView":37,
			"componentType":5126,
			"count":569,
			"type":"VEC3"
		},
		{
			"bufferView":38,
			"componentType":5126,
			"count":569,
			"type":"VEC2"
		},
		{
			"bufferView":39,
			"componentType":5123,
			"count":1962,
			"type":"SCALAR"
		},
		{
			"bufferView":40,
			"componentType":5126,
			"count":1613,
			"max":[
				147.7657012939453,
				147.7656707763672,
				7.62939453125e-05
			],
			"min":[
				-147.7657928466797,
				-147.76588439941406,
				-131.76829528808594
			],
			"type":"VEC3"
		},
		{
			"bufferView":41,
			"componentType":5126,
			"count":1613,
			"type":"VEC3"
		},
		{
			"bufferView":42,
			"componentType":5126,
			"count":1613,
			"type":"VEC2"
		},
		{
			"bufferView":43,
			"componentType":5123,
			"count":5022,
			"type":"SCALAR"
		},
		{
			"bufferView":44,
			"componentType":5126,
			"count":1319,
			"max":[
				254.7413787841797,
				137.46380615234375,
				-37.38960266113281
			],
			"min":[
				-254.7413787841797,
				-324.5973205566406,
				-237.76168823242188
			],
			"type":"VEC3"
		},
		{
			"bufferView":45,
			"componentType":5126,
			"count":1319,
			"type":"VEC3"
		},
		{
			"bufferView":46,
			"componentType":5126,
			"count":1319,
			"type":"VEC2"
		},
		{
			"bufferView":47,
			"componentType":5123,
			"count":3558,
			"type":"SCALAR"
		}
	],
	"bufferViews":[
		{
			"buffer":0,
			"byteLength":23892,
			"byteOffset":0,
			"target":34962
		},
		{
			"buffer":0,
			"byteLength":23892,
			"byteOffset":23892,
			"target":34962
		},
		{
			"buffer":0,
			"byteLength":15928,
			"byteOffset":47784,
			"target":34962
		},
		{
			"buffer":0,
			"byteLength":11112,
			"byteOffset":63712,
			"target":34963
		},
		{
			"buffer":0,
			"byteLength":19920,
			"byteOffset":74824,
			"target":34962
		},
		{
			"buffer":0,
			"byteLength":19920,
			"byteOffset":94744,
			"target":34962
		},
		{
			"buffer":0,
			"byteLength":13280,
			"byteOffset":114664,
			"target":34962
		},
		{
			"buffer":0,
			"byteLength":10368,
			"byteOffset":127944,
			"target":34963
		},
		{
			"buffer":0,
			"byteLength":11424,
			"byteOffset":138312,
			"target":34962
		},
		{
			"buffer":0,
			"byteLength":11424,
			"byteOffset":149736,
			"target":34962
		},
		{
			"buffer":0,
			"byteLength":7616,
			"byteOffset":161160,
			"target":34962
		},
		{
			"buffer":0,
			"byteLength":4872,
			"byteOffset":168776,
			"target":34963
		},
		{
			"buffer":0,
			"byteLength":50796,
			"byteOffset":173648,
			"target":34962
		},
		{
			"buffer":0,
			"byteLength":50796,
			"byteOffset":224444,
			"target":34962
		},
		{
			"buffer":0,
			"byteLength":33864,
			"byteOffset":275240,
			"target":34962
		},
		{
			"buffer":0,
			"byteLength":25428,
			"byteOffset":309104,
			"target":34963
		},
		{
			"buffer":0,
			"byteLength":23892,
			"byteOffset":334532,
			"target":34962
		},
		{
			"buffer":0,
			"byteLength":23892,
			"byteOffset":358424,
			"target":34962
		},
		{
			"buffer":0,
			"byteLength":15928,
			"byteOffset":382316,
			"target":34962
		},
		{
			"buffer":0,
			"byteLength":11112,
			"byteOffset":398244,
			"target":34963
		},
		{
			"buffer":0,
			"byteLength":19920,
			"byteOffset":409356,
			"target":34962
		},
		{
			"buffer":0,
			"byteLength":19920,
			"byteOffset":429276,
			"target":34962
		},
		{
			"buffer":0,
			"byteLength":13280,
			"byteOffset":449196,
			"target":34962
		},
		{
			"buffer":0,
			"byteLength":10368,
			"byteOffset":462476,
			"target":34963
		},
		{
			"buffer":0,
			"byteLength":11424,
			"byteOffset":472844,
			"target":34962
		},
		{
			"buffer":0,
			"byteLength":11424,
			"byteOffset":484268,
			"target":34962
		},
		{
			"buffer":0,
			"byteLength":7616,
			"byteOffset":495692,
			"target":34962
		},
		{
			"buffer":0,
			"byteLength":4872,
			"byteOffset":503308,
			"target":34963
		},
		{
			"buffer":0,
			"byteLength":50820,
			"byteOffset":508180,
			"target":34962
		},
		{
			"buffer":0,
			"byteLength":50820,
			"byteOffset":559000,
			"target":34962
		},
		{
			"buffer":0,
			"byteLength":33880,
			"byteOffset":609820,
			"target":34962
		},
		{
			"buffer":0,
			"byteLength":25428,
			"byteOffset":643700,
			"target":34963
		},
		{
			"buffer":0,
			"byteLength":9528,
			"byteOffset":669128,
			"target":34962
		},
		{
			"buffer":0,
			"byteLength":9528,
			"byteOffset":678656,
			"target":34962
		},
		{
			"buffer":0,
			"byteLength":6352,
			"byteOffset":688184,
			"target":34962
		},
		{
			"buffer":0,
			"byteLength":5016,
			"byteOffset":694536,
			"target":34963
		},
		{
			"buffer":0,
			"byteLength":6828,
			"byteOffset":699552,
			"target":34962
		},
		{
			"buffer":0,
			"byteLength":6828,
			"byteOffset":706380,
			"target":34962
		},
		{
			"buffer":0,
			"byteLength":4552,
			"byteOffset":713208,
			"target":34962
		},
		{
			"buffer":0,
			"byteLength":3924,
			"byteOffset":717760,
			"target":34963
		},
		{
			"buffer":0,
			"byteLength":19356,
			"byteOffset":721684,
			"target":34962
		},
		{
			"buffer":0,
			"byteLength":19356,
			"byteOffset":741040,
			"target":34962
		},
		{
			"buffer":0,
			"byteLength":12904,
			"byteOffset":760396,
			"target":34962
		},
		{
			"buffer":0,
			"byteLength":10044,
			"byteOffset":773300,
			"target":34963
		},
		{
			"buffer":0,
			"byteLength":15828,
			"byteOffset":783344,
			"target":34962
		},
		{
			"buffer":0,
			"byteLength":15828,
			"byteOffset":799172,
			"target":34962
		},
		{
			"buffer":0,
			"byteLength":10552,
			"byteOffset":815000,
			"target":34962
		},
		{
			"buffer":0,
			"byteLength":7116,
			"byteOffset":825552,
			"target":34963
		}
	],
	"samplers":[
		{
			"magFilter":9729,
			"minFilter":9987
		}
	],
	"buffers":[
		{
			"byteLength":832668,
			"uri":"Tank.bin"
		}
	]
}
