{
    "asset": {
        "generator": "FBX2glTF v0.13.1",
        "version": "2.0"
    },
    "scene": 0,
    "buffers": [
        {
            "byteLength": 240776,
            "uri": "Island.bin"
        }
    ],
    "bufferViews": [
        {
            "buffer": 0,
            "byteLength": 9822,
            "byteOffset": 0,
            "target": 34963
        },
        {
            "buffer": 0,
            "byteLength": 10368,
            "byteOffset": 9824,
            "target": 34962
        },
        {
            "buffer": 0,
            "byteLength": 10368,
            "byteOffset": 20192,
            "target": 34962
        },
        {
            "buffer": 0,
            "byteLength": 6912,
            "byteOffset": 30560,
            "target": 34962
        },
        {
            "buffer": 0,
            "byteLength": 54342,
            "byteOffset": 37472,
            "target": 34963
        },
        {
            "buffer": 0,
            "byteLength": 55860,
            "byteOffset": 91816,
            "target": 34962
        },
        {
            "buffer": 0,
            "byteLength": 55860,
            "byteOffset": 147676,
            "target": 34962
        },
        {
            "buffer": 0,
            "byteLength": 37240,
            "byteOffset": 203536,
            "target": 34962
        }
    ],
    "scenes": [
        {
            "name": "Root Scene",
            "nodes": [
                0
            ]
        }
    ],
    "accessors": [
        {
            "componentType": 5123,
            "type": "SCALAR",
            "count": 4911,
            "bufferView": 0,
            "byteOffset": 0
        },
        {
            "componentType": 5126,
            "type": "VEC3",
            "count": 864,
            "bufferView": 1,
            "byteOffset": 0,
            "min": [
                -1.62141382694244,
                -1.62083125114441,
                -0.312184929847717
            ],
            "max": [
                1.62056541442871,
                1.62116205692291,
                0.0746922641992569
            ]
        },
        {
            "componentType": 5126,
            "type": "VEC3",
            "count": 864,
            "bufferView": 2,
            "byteOffset": 0
        },
        {
            "componentType": 5126,
            "type": "VEC2",
            "count": 864,
            "bufferView": 3,
            "byteOffset": 0
        },
        {
            "componentType": 5123,
            "type": "SCALAR",
            "count": 27171,
            "bufferView": 4,
            "byteOffset": 0
        },
        {
            "componentType": 5126,
            "type": "VEC3",
            "count": 4655,
            "bufferView": 5,
            "byteOffset": 0,
            "min": [
                -1.66787421703339,
                -1.73447477817535,
                -0.319516718387604
            ],
            "max": [
                1.63451194763184,
                1.63499236106873,
                0.247822925448418
            ]
        },
        {
            "componentType": 5126,
            "type": "VEC3",
            "count": 4655,
            "bufferView": 6,
            "byteOffset": 0
        },
        {
            "componentType": 5126,
            "type": "VEC2",
            "count": 4655,
            "bufferView": 7,
            "byteOffset": 0
        }
    ],
    "images": [
        {
            "name": "sand_diffuse.png",
            "uri": "sand_diffuse.png"
        },
        {
            "name": "Granit_Rock_diffuse.png",
            "uri": "Granit_Rock_diffuse.png"
        }
    ],
    "samplers": [
        {}
    ],
    "textures": [
        {
            "name": "Tex",
            "sampler": 0,
            "source": 0
        },
        {
            "name": "Tex",
            "sampler": 0,
            "source": 1
        }
    ],
    "materials": [
        {
            "name": "Sand",
            "alphaMode": "OPAQUE",
            "doubleSided": false,
            "extras": {
                "fromFBX": {
                    "shadingModel": "Phong",
                    "isTruePBR": false
                }
            },
            "pbrMetallicRoughness": {
                "baseColorTexture": {
                    "index": 0,
                    "texCoord": 0
                },
                "baseColorFactor": [
                    1.0,
                    1.0,
                    1.0,
                    1.0
                ],
                "metallicFactor": 0.400000005960464,
                "roughnessFactor": 0.415087103843689
            }
        },
        {
            "name": "Granit",
            "alphaMode": "OPAQUE",
            "doubleSided": false,
            "extras": {
                "fromFBX": {
                    "shadingModel": "Phong",
                    "isTruePBR": false
                }
            },
            "pbrMetallicRoughness": {
                "baseColorTexture": {
                    "index": 1,
                    "texCoord": 0
                },
                "baseColorFactor": [
                    1.0,
                    1.0,
                    1.0,
                    1.0
                ],
                "metallicFactor": 0.400000005960464,
                "roughnessFactor": 0.415087103843689
            }
        }
    ],
    "meshes": [
        {
            "name": "Sand",
            "primitives": [
                {
                    "material": 0,
                    "mode": 4,
                    "attributes": {
                        "NORMAL": 2,
                        "POSITION": 1,
                        "TEXCOORD_0": 3
                    },
                    "indices": 0
                }
            ]
        },
        {
            "name": "Island",
            "primitives": [
                {
                    "material": 1,
                    "mode": 4,
                    "attributes": {
                        "NORMAL": 6,
                        "POSITION": 5,
                        "TEXCOORD_0": 7
                    },
                    "indices": 4
                }
            ]
        }
    ],
    "nodes": [
        {
            "name": "RootNode",
            "translation": [
                0.0,
                0.0,
                0.0
            ],
            "rotation": [
                0.0,
                0.0,
                0.0,
                1.0
            ],
            "scale": [
                1.0,
                1.0,
                1.0
            ],
            "children": [
                1,
                2
            ]
        },
        {
            "name": "Sand",
            "translation": [
                0.0333403162658215,
                -0.0433593690395355,
                -0.0162360183894634
            ],
            "rotation": [
                -0.70710676908493,
                -6.18172393274108e-08,
                -6.18172393274108e-08,
                0.70710676908493
            ],
            "scale": [
                1.0,
                1.0,
                1.0
            ],
            "mesh": 0
        },
        {
            "name": "Island",
            "translation": [
                0.0333403274416924,
                0.0,
                -0.0162359904497862
            ],
            "rotation": [
                -0.70710676908493,
                -0.0,
                0.0,
                0.70710676908493
            ],
            "scale": [
                1.0,
                1.0,
                1.0
            ],
            "mesh": 1
        }
    ]
}