{
    "asset": {
        "generator": "FBX2glTF v0.13.1",
        "version": "2.0"
    },
    "scene": 0,
    "buffers": [
        {
            "byteLength": 126252,
            "uri": "saucer.bin"
        }
    ],
    "bufferViews": [
        {
            "buffer": 0,
            "byteLength": 23988,
            "byteOffset": 0,
            "target": 34963
        },
        {
            "buffer": 0,
            "byteLength": 27816,
            "byteOffset": 23988,
            "target": 34962
        },
        {
            "buffer": 0,
            "byteLength": 27816,
            "byteOffset": 51804,
            "target": 34962
        },
        {
            "buffer": 0,
            "byteLength": 18544,
            "byteOffset": 79620,
            "target": 34962
        },
        {
            "buffer": 0,
            "byteLength": 2940,
            "byteOffset": 98164,
            "target": 34963
        },
        {
            "buffer": 0,
            "byteLength": 3180,
            "byteOffset": 101104,
            "target": 34962
        },
        {
            "buffer": 0,
            "byteLength": 3180,
            "byteOffset": 104284,
            "target": 34962
        },
        {
            "buffer": 0,
            "byteLength": 2120,
            "byteOffset": 107464,
            "target": 34962
        },
        {
            "buffer": 0,
            "byteLength": 4284,
            "byteOffset": 109584,
            "target": 34963
        },
        {
            "buffer": 0,
            "byteLength": 4644,
            "byteOffset": 113868,
            "target": 34962
        },
        {
            "buffer": 0,
            "byteLength": 4644,
            "byteOffset": 118512,
            "target": 34962
        },
        {
            "buffer": 0,
            "byteLength": 3096,
            "byteOffset": 123156,
            "target": 34962
        }
    ],
    "scenes": [
        {
            "name": "Root Scene",
            "nodes": [
                0
            ]
        }
    ],
    "accessors": [
        {
            "componentType": 5123,
            "type": "SCALAR",
            "count": 11994,
            "bufferView": 0,
            "byteOffset": 0
        },
        {
            "componentType": 5126,
            "type": "VEC3",
            "count": 2318,
            "bufferView": 1,
            "byteOffset": 0,
            "min": [
                -12.761100769043,
                -2.9110701084137,
                -7.94893455505371
            ],
            "max": [
                12.761100769043,
                2.91106986999512,
                13.9824800491333
            ]
        },
        {
            "componentType": 5126,
            "type": "VEC3",
            "count": 2318,
            "bufferView": 2,
            "byteOffset": 0
        },
        {
            "componentType": 5126,
            "type": "VEC2",
            "count": 2318,
            "bufferView": 3,
            "byteOffset": 0
        },
        {
            "componentType": 5123,
            "type": "SCALAR",
            "count": 1470,
            "bufferView": 4,
            "byteOffset": 0
        },
        {
            "componentType": 5126,
            "type": "VEC3",
            "count": 265,
            "bufferView": 5,
            "byteOffset": 0,
            "min": [
                -2.8114492893219,
                -2.83810448646545,
                -3.05093932151794
            ],
            "max": [
                2.81180715560913,
                3.21739888191223,
                2.61842894554138
            ]
        },
        {
            "componentType": 5126,
            "type": "VEC3",
            "count": 265,
            "bufferView": 6,
            "byteOffset": 0
        },
        {
            "componentType": 5126,
            "type": "VEC2",
            "count": 265,
            "bufferView": 7,
            "byteOffset": 0
        },
        {
            "componentType": 5123,
            "type": "SCALAR",
            "count": 2142,
            "bufferView": 8,
            "byteOffset": 0
        },
        {
            "componentType": 5126,
            "type": "VEC3",
            "count": 387,
            "bufferView": 9,
            "byteOffset": 0,
            "min": [
                -12.2224740982056,
                -2.19228363037109,
                -5.2146897315979
            ],
            "max": [
                12.2224740982056,
                2.19228339195251,
                11.4174165725708
            ]
        },
        {
            "componentType": 5126,
            "type": "VEC3",
            "count": 387,
            "bufferView": 10,
            "byteOffset": 0
        },
        {
            "componentType": 5126,
            "type": "VEC2",
            "count": 387,
            "bufferView": 11,
            "byteOffset": 0
        }
    ],
    "images": [
        {
            "name": "saucer_texture.tga",
            "uri": "saucer_texture.tga"
        }
    ],
    "samplers": [
        {}
    ],
    "textures": [
        {
            "name": "file4",
            "sampler": 0,
            "source": 0
        }
    ],
    "materials": [
        {
            "name": "saucer_phong",
            "alphaMode": "BLEND",
            "doubleSided": false,
            "extras": {
                "fromFBX": {
                    "shadingModel": "Phong",
                    "isTruePBR": false
                }
            },
            "pbrMetallicRoughness": {
                "baseColorTexture": {
                    "index": 0,
                    "texCoord": 0
                },
                "baseColorFactor": [
                    1.0,
                    1.0,
                    1.0,
                    1.0
                ],
                "metallicFactor": 0.400000005960464,
                "roughnessFactor": 0.251816481351852
            }
        },
        {
            "name": "p1_cockpit_phong1",
            "alphaMode": "OPAQUE",
            "doubleSided": false,
            "extras": {
                "fromFBX": {
                    "shadingModel": "Phong",
                    "isTruePBR": false
                }
            },
            "pbrMetallicRoughness": {
                "baseColorFactor": [
                    0.605000019073486,
                    0.9742591381073,
                    1.0,
                    1.0
                ],
                "metallicFactor": 0.400000005960464,
                "roughnessFactor": 0.301511347293854
            }
        },
        {
            "name": "engines",
            "alphaMode": "OPAQUE",
            "doubleSided": false,
            "extras": {
                "fromFBX": {
                    "shadingModel": "Phong",
                    "isTruePBR": false
                }
            },
            "pbrMetallicRoughness": {
                "baseColorFactor": [
                    1.0,
                    0.991813004016876,
                    0.98199999332428,
                    1.0
                ],
                "metallicFactor": 0.400000005960464,
                "roughnessFactor": 0.487950056791306
            }
        }
    ],
    "meshes": [
        {
            "name": "p1_saucer_geo",
            "primitives": [
                {
                    "material": 0,
                    "mode": 4,
                    "attributes": {
                        "NORMAL": 2,
                        "POSITION": 1,
                        "TEXCOORD_0": 3
                    },
                    "indices": 0
                },
                {
                    "material": 1,
                    "mode": 4,
                    "attributes": {
                        "NORMAL": 6,
                        "POSITION": 5,
                        "TEXCOORD_0": 7
                    },
                    "indices": 4
                },
                {
                    "material": 2,
                    "mode": 4,
                    "attributes": {
                        "NORMAL": 10,
                        "POSITION": 9,
                        "TEXCOORD_0": 11
                    },
                    "indices": 8
                }
            ]
        }
    ],
    "nodes": [
        {
            "name": "RootNode",
            "translation": [
                0.0,
                0.0,
                0.0
            ],
            "rotation": [
                0.0,
                0.0,
                0.0,
                1.0
            ],
            "scale": [
                1.0,
                1.0,
                1.0
            ],
            "children": [
                1
            ]
        },
        {
            "name": "p1_saucer_geo",
            "translation": [
                0.0,
                0.0,
                0.0
            ],
            "rotation": [
                0.0,
                0.0,
                0.0,
                1.0
            ],
            "scale": [
                1.0,
                1.0,
                1.0
            ],
            "mesh": 0
        }
    ]
}