{
    "asset": {
        "version": "2.0",
        "generator": "Open Asset Import Library (assimp v5.2.0)"
    },
    "extensionsUsed": [
        "KHR_materials_pbrSpecularGlossiness",
        "FB_ngon_encoding"
    ],
    "accessors": [
        {
            "bufferView": 0,
            "byteOffset": 0,
            "componentType": 5126,
            "count": 6,
            "type": "VEC3",
            "max": [
                200.0,
                0.0,
                200.0
            ],
            "min": [
                -200.0,
                0.0,
                -200.0
            ]
        },
        {
            "bufferView": 1,
            "byteOffset": 0,
            "componentType": 5126,
            "count": 6,
            "type": "VEC3",
            "max": [
                0.0,
                -1.0,
                -0.0
            ],
            "min": [
                0.0,
                -1.0,
                -0.0
            ]
        },
        {
            "bufferView": 2,
            "byteOffset": 0,
            "componentType": 5126,
            "count": 6,
            "type": "VEC2",
            "max": [
                32.0,
                32.0
            ],
            "min": [
                0.0,
                0.0
            ]
        },
        {
            "bufferView": 3,
            "byteOffset": 0,
            "componentType": 5125,
            "count": 6,
            "type": "SCALAR",
            "max": [
                5
            ],
            "min": [
                0
            ]
        }
    ],
    "buffers": [
        {
            "byteLength": 216,
            "uri": "Ground.bin"
        }
    ],
    "bufferViews": [
        {
            "buffer": 0,
            "byteOffset": 0,
            "byteLength": 72,
            "target": 34962
        },
        {
            "buffer": 0,
            "byteOffset": 72,
            "byteLength": 72,
            "target": 34962
        },
        {
            "buffer": 0,
            "byteOffset": 144,
            "byteLength": 48,
            "target": 34962
        },
        {
            "buffer": 0,
            "byteOffset": 192,
            "byteLength": 24,
            "target": 34963
        }
    ],
    "images": [
        {
            "uri": "ground.png"
        }
    ],
    "materials": [
        {
            "name": "material61",
            "pbrMetallicRoughness": {
                "baseColorTexture": {
                    "index": 0
                },
                "baseColorFactor": [
                    0.800000011920929,
                    0.800000011920929,
                    0.800000011920929,
                    1.0
                ],
                "metallicFactor": 0.0
            },
            "extensions": {
                "KHR_materials_pbrSpecularGlossiness": {
                    "diffuseFactor": [
                        0.800000011920929,
                        0.800000011920929,
                        0.800000011920929,
                        1.0
                    ],
                    "specularFactor": [
                        0.0,
                        0.0,
                        0.0
                    ],
                    "glossinessFactor": 0.0,
                    "diffuseTexture": {
                        "index": 0
                    }
                }
            }
        }
    ],
    "meshes": [
        {
            "primitives": [
                {
                    "mode": 4,
                    "material": 0,
                    "indices": 3,
                    "attributes": {
                        "POSITION": 0,
                        "NORMAL": 1,
                        "TEXCOORD_0": 2
                    }
                }
            ]
        }
    ],
    "nodes": [
        {
            "name": "$dummy_node",
            "mesh": 0
        }
    ],
    "samplers": [
        {}
    ],
    "scenes": [
        {
            "nodes": [
                0
            ]
        }
    ],
    "textures": [
        {
            "source": 0,
            "sampler": 0
        }
    ],
    "scene": 0
}