{
    "asset": {
        "generator": "FBX2glTF v0.13.1",
        "version": "2.0"
    },
    "scene": 0,
    "buffers": [
        {
            "byteLength": 390656,
            "uri": "Car.bin"
        }
    ],
    "bufferViews": [
        {
            "buffer": 0,
            "byteLength": 53880,
            "byteOffset": 0,
            "target": 34963
        },
        {
            "buffer": 0,
            "byteLength": 65436,
            "byteOffset": 53880,
            "target": 34962
        },
        {
            "buffer": 0,
            "byteLength": 65436,
            "byteOffset": 119316,
            "target": 34962
        },
        {
            "buffer": 0,
            "byteLength": 43624,
            "byteOffset": 184752,
            "target": 34962
        },
        {
            "buffer": 0,
            "byteLength": 4272,
            "byteOffset": 228376,
            "target": 34963
        },
        {
            "buffer": 0,
            "byteLength": 9360,
            "byteOffset": 232648,
            "target": 34962
        },
        {
            "buffer": 0,
            "byteLength": 9360,
            "byteOffset": 242008,
            "target": 34962
        },
        {
            "buffer": 0,
            "byteLength": 6240,
            "byteOffset": 251368,
            "target": 34962
        },
        {
            "buffer": 0,
            "byteLength": 17856,
            "byteOffset": 257608,
            "target": 34963
        },
        {
            "buffer": 0,
            "byteLength": 34968,
            "byteOffset": 275464,
            "target": 34962
        },
        {
            "buffer": 0,
            "byteLength": 34968,
            "byteOffset": 310432,
            "target": 34962
        },
        {
            "buffer": 0,
            "byteLength": 23312,
            "byteOffset": 345400,
            "target": 34962
        },
        {
            "buffer": 0,
            "byteLength": 4728,
            "byteOffset": 368712,
            "target": 34963
        },
        {
            "buffer": 0,
            "byteLength": 6456,
            "byteOffset": 373440,
            "target": 34962
        },
        {
            "buffer": 0,
            "byteLength": 6456,
            "byteOffset": 379896,
            "target": 34962
        },
        {
            "buffer": 0,
            "byteLength": 4304,
            "byteOffset": 386352,
            "target": 34962
        }
    ],
    "scenes": [
        {
            "name": "Root Scene",
            "nodes": [
                0
            ]
        }
    ],
    "accessors": [
        {
            "componentType": 5123,
            "type": "SCALAR",
            "count": 26940,
            "bufferView": 0,
            "byteOffset": 0
        },
        {
            "componentType": 5126,
            "type": "VEC3",
            "count": 5453,
            "bufferView": 1,
            "byteOffset": 0,
            "min": [
                -0.0339946784079075,
                -0.0644885748624802,
                0.000224409988732077
            ],
            "max": [
                0.0339946784079075,
                0.0981608554720879,
                0.0457458570599556
            ]
        },
        {
            "componentType": 5126,
            "type": "VEC3",
            "count": 5453,
            "bufferView": 2,
            "byteOffset": 0
        },
        {
            "componentType": 5126,
            "type": "VEC2",
            "count": 5453,
            "bufferView": 3,
            "byteOffset": 0
        },
        {
            "componentType": 5123,
            "type": "SCALAR",
            "count": 2136,
            "bufferView": 4,
            "byteOffset": 0
        },
        {
            "componentType": 5126,
            "type": "VEC3",
            "count": 780,
            "bufferView": 5,
            "byteOffset": 0,
            "min": [
                -0.0291551575064659,
                -0.0618190988898277,
                0.00576653983443975
            ],
            "max": [
                0.0291551575064659,
                0.0880020037293434,
                0.0314833410084248
            ]
        },
        {
            "componentType": 5126,
            "type": "VEC3",
            "count": 780,
            "bufferView": 6,
            "byteOffset": 0
        },
        {
            "componentType": 5126,
            "type": "VEC2",
            "count": 780,
            "bufferView": 7,
            "byteOffset": 0
        },
        {
            "componentType": 5123,
            "type": "SCALAR",
            "count": 8928,
            "bufferView": 8,
            "byteOffset": 0
        },
        {
            "componentType": 5126,
            "type": "VEC3",
            "count": 2914,
            "bufferView": 9,
            "byteOffset": 0,
            "min": [
                -0.0334717109799385,
                -0.0601028092205524,
                0.00152076000813395
            ],
            "max": [
                0.0334716998040676,
                0.0900056064128876,
                0.0421365313231945
            ]
        },
        {
            "componentType": 5126,
            "type": "VEC3",
            "count": 2914,
            "bufferView": 10,
            "byteOffset": 0
        },
        {
            "componentType": 5126,
            "type": "VEC2",
            "count": 2914,
            "bufferView": 11,
            "byteOffset": 0
        },
        {
            "componentType": 5123,
            "type": "SCALAR",
            "count": 2364,
            "bufferView": 12,
            "byteOffset": 0
        },
        {
            "componentType": 5126,
            "type": "VEC3",
            "count": 538,
            "bufferView": 13,
            "byteOffset": 0,
            "min": [
                -0.0277553591877222,
                -0.0593864805996418,
                0.0175612699240446
            ],
            "max": [
                0.0277553591877222,
                0.0938273593783379,
                0.0427054204046726
            ]
        },
        {
            "componentType": 5126,
            "type": "VEC3",
            "count": 538,
            "bufferView": 14,
            "byteOffset": 0
        },
        {
            "componentType": 5126,
            "type": "VEC2",
            "count": 538,
            "bufferView": 15,
            "byteOffset": 0
        }
    ],
    "images": [
        {
            "name": "RacerCar.png",
            "uri": "RacerCar.png"
        }
    ],
    "samplers": [
        {}
    ],
    "textures": [
        {
            "name": "RacerCar_png",
            "sampler": 0,
            "source": 0
        }
    ],
    "materials": [
        {
            "name": "Glass",
            "alphaMode": "OPAQUE",
            "doubleSided": false,
            "extras": {
                "fromFBX": {
                    "shadingModel": "Lambert",
                    "isTruePBR": false
                }
            },
            "pbrMetallicRoughness": {
                "baseColorFactor": [
                    0.720000028610229,
                    0.751999974250793,
                    0.800000011920929,
                    1.0
                ],
                "metallicFactor": 0.200000002980232,
                "roughnessFactor": 0.800000011920929
            }
        },
        {
            "name": "Car__RacerCar_png",
            "alphaMode": "OPAQUE",
            "doubleSided": false,
            "extras": {
                "fromFBX": {
                    "shadingModel": "Lambert",
                    "isTruePBR": false
                }
            },
            "pbrMetallicRoughness": {
                "baseColorTexture": {
                    "index": 0,
                    "texCoord": 0
                },
                "baseColorFactor": [
                    0.800000011920929,
                    0.800000011920929,
                    0.800000011920929,
                    1.0
                ],
                "metallicFactor": 0.200000002980232,
                "roughnessFactor": 0.800000011920929
            }
        },
        {
            "name": "Material_003__RacerCar_png",
            "alphaMode": "OPAQUE",
            "doubleSided": false,
            "extras": {
                "fromFBX": {
                    "shadingModel": "Lambert",
                    "isTruePBR": false
                }
            },
            "pbrMetallicRoughness": {
                "baseColorTexture": {
                    "index": 0,
                    "texCoord": 0
                },
                "baseColorFactor": [
                    0.800000011920929,
                    0.800000011920929,
                    0.800000011920929,
                    1.0
                ],
                "metallicFactor": 0.200000002980232,
                "roughnessFactor": 0.800000011920929
            }
        },
        {
            "name": "Material_002__RacerCar_png",
            "alphaMode": "OPAQUE",
            "doubleSided": false,
            "extras": {
                "fromFBX": {
                    "shadingModel": "Lambert",
                    "isTruePBR": false
                }
            },
            "pbrMetallicRoughness": {
                "baseColorTexture": {
                    "index": 0,
                    "texCoord": 0
                },
                "baseColorFactor": [
                    0.800000011920929,
                    0.800000011920929,
                    0.800000011920929,
                    1.0
                ],
                "metallicFactor": 0.200000002980232,
                "roughnessFactor": 0.800000011920929
            }
        }
    ],
    "meshes": [
        {
            "name": "Car",
            "primitives": [
                {
                    "material": 1,
                    "mode": 4,
                    "attributes": {
                        "NORMAL": 2,
                        "POSITION": 1,
                        "TEXCOORD_0": 3
                    },
                    "indices": 0
                },
                {
                    "material": 2,
                    "mode": 4,
                    "attributes": {
                        "NORMAL": 6,
                        "POSITION": 5,
                        "TEXCOORD_0": 7
                    },
                    "indices": 4
                },
                {
                    "material": 3,
                    "mode": 4,
                    "attributes": {
                        "NORMAL": 10,
                        "POSITION": 9,
                        "TEXCOORD_0": 11
                    },
                    "indices": 8
                }
            ]
        },
        {
            "name": "Glass",
            "primitives": [
                {
                    "material": 0,
                    "mode": 4,
                    "attributes": {
                        "NORMAL": 14,
                        "POSITION": 13,
                        "TEXCOORD_0": 15
                    },
                    "indices": 12
                }
            ]
        }
    ],
    "nodes": [
        {
            "name": "RootNode",
            "translation": [
                0.0,
                0.0,
                0.0
            ],
            "rotation": [
                0.0,
                0.0,
                0.0,
                1.0
            ],
            "scale": [
                1.0,
                1.0,
                1.0
            ],
            "children": [
                1
            ]
        },
        {
            "name": "blend_root",
            "translation": [
                0.0,
                0.0,
                0.0
            ],
            "rotation": [
                0.0,
                0.0,
                0.0,
                1.0
            ],
            "scale": [
                1.0,
                1.0,
                1.0
            ],
            "children": [
                2,
                3
            ]
        },
        {
            "name": "Glass",
            "translation": [
                0.0,
                0.0,
                0.0
            ],
            "rotation": [
                -0.707106828689575,
                0.0,
                0.0,
                0.707106709480286
            ],
            "scale": [
                0.304800033569336,
                0.304800033569336,
                0.304800033569336
            ],
            "mesh": 1
        },
        {
            "name": "Car",
            "translation": [
                0.0,
                0.0,
                0.0
            ],
            "rotation": [
                -0.707106828689575,
                0.0,
                0.0,
                0.707106709480286
            ],
            "scale": [
                30.4800033569336,
                30.4800033569336,
                30.4800033569336
            ],
            "mesh": 0
        }
    ]
}