{
    "asset": {
        "generator": "FBX2glTF v0.13.1",
        "version": "2.0"
    },
    "scene": 0,
    "buffers": [
        {
            "byteLength": 28380,
            "uri": "Wheel.bin"
        }
    ],
    "bufferViews": [
        {
            "buffer": 0,
            "byteLength": 1284,
            "byteOffset": 0,
            "target": 34963
        },
        {
            "buffer": 0,
            "byteLength": 2064,
            "byteOffset": 1284,
            "target": 34962
        },
        {
            "buffer": 0,
            "byteLength": 2064,
            "byteOffset": 3348,
            "target": 34962
        },
        {
            "buffer": 0,
            "byteLength": 1376,
            "byteOffset": 5412,
            "target": 34962
        },
        {
            "buffer": 0,
            "byteLength": 4536,
            "byteOffset": 6788,
            "target": 34963
        },
        {
            "buffer": 0,
            "byteLength": 6396,
            "byteOffset": 11324,
            "target": 34962
        },
        {
            "buffer": 0,
            "byteLength": 6396,
            "byteOffset": 17720,
            "target": 34962
        },
        {
            "buffer": 0,
            "byteLength": 4264,
            "byteOffset": 24116,
            "target": 34962
        }
    ],
    "scenes": [
        {
            "name": "Root Scene",
            "nodes": [
                0
            ]
        }
    ],
    "accessors": [
        {
            "componentType": 5123,
            "type": "SCALAR",
            "count": 642,
            "bufferView": 0,
            "byteOffset": 0
        },
        {
            "componentType": 5126,
            "type": "VEC3",
            "count": 172,
            "bufferView": 1,
            "byteOffset": 0,
            "min": [
                -0.0101392492651939,
                -0.0125983497127891,
                -0.0125984000042081
            ],
            "max": [
                0.00300103006884456,
                0.0125984391197562,
                0.0125984000042081
            ]
        },
        {
            "componentType": 5126,
            "type": "VEC3",
            "count": 172,
            "bufferView": 2,
            "byteOffset": 0
        },
        {
            "componentType": 5126,
            "type": "VEC2",
            "count": 172,
            "bufferView": 3,
            "byteOffset": 0
        },
        {
            "componentType": 5123,
            "type": "SCALAR",
            "count": 2268,
            "bufferView": 4,
            "byteOffset": 0
        },
        {
            "componentType": 5126,
            "type": "VEC3",
            "count": 533,
            "bufferView": 5,
            "byteOffset": 0,
            "min": [
                -0.00222121994011104,
                -0.0102177998051047,
                -0.0102178500965238
            ],
            "max": [
                0.00316338986158371,
                0.0102178892120719,
                0.0102178389206529
            ]
        },
        {
            "componentType": 5126,
            "type": "VEC3",
            "count": 533,
            "bufferView": 6,
            "byteOffset": 0
        },
        {
            "componentType": 5126,
            "type": "VEC2",
            "count": 533,
            "bufferView": 7,
            "byteOffset": 0
        }
    ],
    "images": [
        {
            "name": "RacerCar.png",
            "uri": "RacerCar.png"
        }
    ],
    "samplers": [
        {}
    ],
    "textures": [
        {
            "name": "RacerCar_png",
            "sampler": 0,
            "source": 0
        }
    ],
    "materials": [
        {
            "name": "Car__RacerCar_png",
            "alphaMode": "OPAQUE",
            "doubleSided": false,
            "extras": {
                "fromFBX": {
                    "shadingModel": "Lambert",
                    "isTruePBR": false
                }
            },
            "pbrMetallicRoughness": {
                "baseColorTexture": {
                    "index": 0,
                    "texCoord": 0
                },
                "baseColorFactor": [
                    0.800000011920929,
                    0.800000011920929,
                    0.800000011920929,
                    1.0
                ],
                "metallicFactor": 0.200000002980232,
                "roughnessFactor": 0.800000011920929
            }
        },
        {
            "name": "Material_002__RacerCar_png",
            "alphaMode": "OPAQUE",
            "doubleSided": false,
            "extras": {
                "fromFBX": {
                    "shadingModel": "Lambert",
                    "isTruePBR": false
                }
            },
            "pbrMetallicRoughness": {
                "baseColorTexture": {
                    "index": 0,
                    "texCoord": 0
                },
                "baseColorFactor": [
                    0.800000011920929,
                    0.800000011920929,
                    0.800000011920929,
                    1.0
                ],
                "metallicFactor": 0.200000002980232,
                "roughnessFactor": 0.800000011920929
            }
        }
    ],
    "meshes": [
        {
            "name": "Wheel",
            "primitives": [
                {
                    "material": 0,
                    "mode": 4,
                    "attributes": {
                        "NORMAL": 2,
                        "POSITION": 1,
                        "TEXCOORD_0": 3
                    },
                    "indices": 0
                },
                {
                    "material": 1,
                    "mode": 4,
                    "attributes": {
                        "NORMAL": 6,
                        "POSITION": 5,
                        "TEXCOORD_0": 7
                    },
                    "indices": 4
                }
            ]
        }
    ],
    "nodes": [
        {
            "name": "RootNode",
            "translation": [
                0.0,
                0.0,
                0.0
            ],
            "rotation": [
                0.0,
                0.0,
                0.0,
                1.0
            ],
            "scale": [
                1.0,
                1.0,
                1.0
            ],
            "children": [
                1
            ]
        },
        {
            "name": "blend_root",
            "translation": [
                0.0,
                0.0,
                0.0
            ],
            "rotation": [
                0.0,
                0.0,
                0.0,
                1.0
            ],
            "scale": [
                1.0,
                1.0,
                1.0
            ],
            "children": [
                2
            ]
        },
        {
            "name": "Wheel",
            "translation": [
                0.0,
                0.0,
                0.0
            ],
            "rotation": [
                -0.707106828689575,
                0.0,
                0.0,
                0.707106709480286
            ],
            "scale": [
                0.304800033569336,
                0.304800033569336,
                0.304800033569336
            ],
            "mesh": 0
        }
    ]
}